<?xml version="1.0" encoding="UTF-8"?>
<svg width="288px" height="288px" viewBox="0 0 288 288" version="1.1" xmlns="http://www.w3.org/2000/svg" xmlns:xlink="http://www.w3.org/1999/xlink">
    <!-- Generator: Sketch 53.2 (72643) - https://sketchapp.com -->
    <title>288</title>
    <desc>Created with Sketch.</desc>
    <g id="ui-kit" stroke="none" stroke-width="1" fill="none" fill-rule="evenodd">
        <g id="logo" transform="translate(-128.000000, -1088.000000)" fill="#FFFFFF" fill-rule="nonzero">
            <g id="white" transform="translate(0.000000, 960.000000)">
                <path d="M230.024,213.536 L137.792,324.2 C131.456,308 128,290.432 128,272 C128,192.44 192.44,128 272,128 C351.56,128 416,192.44 416,272 C416,315.992 396.272,355.376 365.168,381.8 L178.832,381.8 C170.696,374.816 163.28,366.968 156.8,358.4 L321.248,358.4 L321.248,296.048 L373.16,358.4 L387.2,358.4 L321.176,279.2 L302.96,301.088 L230.024,213.536 Z M321.176,185.6 C301.304,185.6 285.176,201.728 285.176,221.6 C285.176,241.472 301.304,257.6 321.176,257.6 C341.048,257.6 357.176,241.472 357.176,221.6 C357.176,201.728 341.048,185.6 321.176,185.6 Z M230.024,159.536 C220.088,159.536 212.024,167.6 212.024,177.536 C212.024,187.472 220.088,195.536 230.024,195.536 C239.96,195.536 248.024,187.472 248.024,177.536 C248.024,167.6 239.96,159.536 230.024,159.536 Z M193.304,392.6 L350.696,392.6 C328.088,407.36 301.016,416 272,416 C242.984,416 215.912,407.36 193.304,392.6 Z M295.976,309.512 L264.224,347.6 L149.456,347.6 C144.92,340.184 140.96,332.408 137.792,324.2 L230.024,324.2 L230.024,230.384 L295.976,309.512 Z" id="288"></path>
            </g>
        </g>
    </g>
</svg>